<?xml version="1.0" standalone="no"?>
<!DOCTYPE svg PUBLIC "-//W3C//DTD SVG 20010904//EN"
 "http://www.w3.org/TR/2001/REC-SVG-20010904/DTD/svg10.dtd">
<svg version="1.0" xmlns="http://www.w3.org/2000/svg"
 width="1600.000000pt" height="1600.000000pt" viewBox="0 0 1600.000000 1600.000000"
 preserveAspectRatio="xMidYMid meet">
<metadata>
Created by potrace 1.15, written by Peter Selinger 2001-2017
</metadata>
<g transform="translate(0.000000,1600.000000) scale(0.100000,-0.100000)"
fill="#000000" stroke="none">
<path d="M7480 12989 c-1887 -122 -3576 -842 -4699 -2005 -673 -696 -1085
-1480 -1231 -2342 -68 -400 -68 -884 0 -1284 234 -1383 1199 -2622 2670 -3430
970 -534 2070 -841 3285 -918 206 -13 784 -13 990 0 1547 98 2943 582 4038
1402 1057 791 1726 1819 1917 2946 68 400 68 884 0 1284 -234 1383 -1199 2622
-2670 3430 -970 534 -2070 841 -3285 918 -184 12 -830 11 -1015 -1z"/>
</g>
</svg>
