<?xml version="1.0" standalone="no"?>
<!DOCTYPE svg PUBLIC "-//W3C//DTD SVG 20010904//EN"
 "http://www.w3.org/TR/2001/REC-SVG-20010904/DTD/svg10.dtd">
<svg version="1.0" xmlns="http://www.w3.org/2000/svg"
 width="1200.000000pt" height="1200.000000pt" viewBox="0 0 1200.000000 1200.000000"
 preserveAspectRatio="xMidYMid meet">
<metadata>
Created by potrace 1.15, written by Peter Selinger 2001-2017
</metadata>
<g transform="translate(0.000000,1200.000000) scale(0.100000,-0.100000)"
fill="#000000" stroke="none">
<path d="M5710 10663 c-1016 -71 -1898 -420 -2690 -1063 -148 -120 -500 -472
-620 -620 -548 -675 -883 -1419 -1015 -2250 -65 -412 -72 -909 -19 -1325 102
-795 413 -1566 888 -2198 246 -327 546 -634 862 -884 656 -516 1468 -855 2294
-957 171 -21 375 -36 492 -36 l98 0 0 4670 0 4670 -122 -2 c-68 -1 -143 -3
-168 -5z"/>
</g>
</svg>
