<?xml version="1.0" encoding="utf-8"?>
<svg id="master-artboard" viewBox="0 0 1080 1080" version="1.1" xmlns="http://www.w3.org/2000/svg" x="0px" y="0px" style="enable-background:new 0 0 1400 980;" width="1080px" height="1080px"><rect id="ee-background" x="0" y="0" width="1080" height="1080" style="fill: white; fill-opacity: 0; pointer-events: none;"/>

<pattern width="100" height="100" patternUnits="userSpaceOnUse" id="New_Pattern_Swatch_2" viewBox="0 -100 100 100" style="overflow:visible;">
	<g>
		<path d="M 0 0 L 100 0 L 100 -100 L 0 -100 Z" class="st0" style="fill: none;"/>
		<g>
			<path d="M 50.400001525878906 -25.899999618530273 L 28.5 0 L 42.5 0 L 50.20000076293945 -8.800000190734863 L 57.5 0 L 71.5 0 Z" class="st1" style="fill: rgb(255, 219, 0);"/>
		</g>
		<g>
			<path d="M 28.5 -100 L 0 -66 L 0 -49.20000076293945 L 42.5 -100 Z" class="st1" style="fill: rgb(255, 219, 0);"/>
		</g>
		<g>
			<path d="M 1.100000023841858 0 L 13.800000190734863 0 L 14.199999809265137 0 L 50.400001525878906 -42.900001525878906 L 85.80000305175781 0 L 86.19999694824219 0 L 98.9000015258789 0 L 50 -58 Z" class="st1" style="fill: rgb(255, 219, 0);"/>
		</g>
		<g>
			<path d="M 1.100000023841858 -100 L 0 -98.5999984741211 L 0 -83.0999984741211 L 14.199999809265137 -100 Z" class="st1" style="fill: rgb(255, 219, 0);"/>
		</g>
		<g>
			<path d="M 0 -32 L 0 -15.800000190734863 L 50 -75.0999984741211 L 100 -15.800000190734863 L 100 -32 L 50 -91.80000305175781 Z" class="st1" style="fill: rgb(255, 219, 0);"/>
		</g>
		<path d="M 14.199999809265137 -100 L 0 -83.0999984741211 L 0 -66 L 28.5 -100 Z" class="st2" style="fill: rgb(222, 123, 38);"/>
		<path d="M 0 -15.800000190734863 L 0 0 L 1.100000023841858 0 L 50 -58 L 98.9000015258789 0 L 100 0 L 100 -15.800000190734863 L 50 -75.0999984741211 Z" class="st2" style="fill: rgb(222, 123, 38);"/>
		<path d="M 50.400001525878906 -42.900001525878906 L 14.199999809265137 0 L 28.200000762939453 0 L 28.5 0 L 50.400001525878906 -25.899999618530273 L 71.5 0 L 71.80000305175781 0 L 85.80000305175781 0 Z" class="st2" style="fill: rgb(222, 123, 38);"/>
		<path d="M 42.5 0 L 50 0 L 57.5 0 L 50.20000076293945 -8.800000190734863 Z" class="st2" style="fill: rgb(222, 123, 38);"/>
		<g>
			<path d="M 85.80000305175781 -100 L 100 -83.0999984741211 L 100 -98.5999984741211 L 98.9000015258789 -100 Z" class="st1" style="fill: rgb(255, 219, 0);"/>
		</g>
		<g>
			<path d="M 57.5 -100 L 100 -49.20000076293945 L 100 -66 L 71.5 -100 Z" class="st1" style="fill: rgb(255, 219, 0);"/>
		</g>
		<path d="M 42.5 -100 L 0 -49.20000076293945 L 0 -32 L 50 -91.80000305175781 L 100 -32 L 100 -49.20000076293945 L 57.5 -100 Z" class="st2" style="fill: rgb(222, 123, 38);"/>
		<path d="M 71.5 -100 L 100 -66 L 100 -83.0999984741211 L 85.80000305175781 -100 Z" class="st2" style="fill: rgb(222, 123, 38);"/>
		<g>
			<path d="M 98.9000015258789 -100 L 100 -98.5999984741211 L 100 -100 Z" class="st3" style="fill: rgb(255, 219, 11);"/>
		</g>
		<g>
			<path d="M 0 -100 L 0 -98.5999984741211 L 1.100000023841858 -100 Z" class="st3" style="fill: rgb(255, 219, 11);"/>
		</g>
	</g>
</pattern>






<g transform="matrix(11.031883992597287, 0, 0, 11.031883992597287, -650.6836717476446, -547.7495428864125)"><g id="g-1" transform="matrix(1, 0, 0, 1, 0, 0)">
	<g id="g-2">
		<path class="st0" d="M58,49h100v100H58V49z" style="fill: rgb(0, 0, 0);"/>
	</g>
</g></g></svg>