<?xml version="1.0" standalone="no"?>
<!DOCTYPE svg PUBLIC "-//W3C//DTD SVG 20010904//EN"
 "http://www.w3.org/TR/2001/REC-SVG-20010904/DTD/svg10.dtd">
<svg version="1.0" xmlns="http://www.w3.org/2000/svg"
 width="361.000000pt" height="289.000000pt" viewBox="0 0 361.000000 289.000000"
 preserveAspectRatio="xMidYMid meet">
<metadata>
Created by potrace 1.15, written by Peter Selinger 2001-2017
</metadata>
<g transform="translate(0.000000,289.000000) scale(0.100000,-0.100000)"
fill="#000000" stroke="none">
<path d="M1040 2655 c-74 -14 -200 -54 -295 -95 -37 -16 -46 -24 -40 -38 4 -9
20 -54 36 -99 l30 -81 105 44 c58 24 131 51 162 59 85 23 257 36 325 25 141
-23 251 -107 283 -216 21 -75 15 -191 -13 -256 -26 -57 -93 -131 -147 -163
-54 -31 -170 -63 -262 -71 l-74 -7 0 -52 c0 -29 3 -74 7 -100 l6 -47 66 6 c36
4 85 10 108 13 l43 6 113 -114 c94 -95 121 -128 154 -196 103 -206 73 -420
-72 -517 -82 -54 -145 -71 -270 -71 -93 1 -121 5 -182 27 -221 79 -399 287
-605 705 l-99 202 -82 -31 c-45 -17 -90 -33 -100 -35 -22 -7 -20 -13 42 -146
253 -538 516 -820 851 -913 101 -28 320 -26 425 4 207 60 337 184 374 360 16
74 14 207 -4 275 -8 31 -29 85 -46 118 -16 34 -28 63 -26 65 2 3 49 -1 103 -7
141 -17 363 -6 492 24 l102 24 0 -609 0 -608 125 0 125 0 0 1145 0 1145 215 0
215 0 0 100 0 100 -490 0 -490 0 0 -100 0 -100 150 0 150 0 0 -433 0 -434 -67
-16 c-38 -9 -99 -22 -138 -29 -80 -14 -421 -17 -537 -5 l-76 9 -72 67 -71 68
55 36 c120 79 190 167 225 281 99 319 -76 616 -401 681 -96 19 -323 19 -428 0z"/>
</g>
</svg>
