<?xml version="1.0" standalone="no"?>
<!DOCTYPE svg PUBLIC "-//W3C//DTD SVG 20010904//EN"
 "http://www.w3.org/TR/2001/REC-SVG-20010904/DTD/svg10.dtd">
<svg version="1.0" xmlns="http://www.w3.org/2000/svg"
 width="360.000000pt" height="288.000000pt" viewBox="0 0 360.000000 288.000000"
 preserveAspectRatio="xMidYMid meet">
<metadata>
Created by potrace 1.15, written by Peter Selinger 2001-2017
</metadata>
<g transform="translate(0.000000,288.000000) scale(0.100000,-0.100000)"
fill="#000000" stroke="none">
<path d="M1389 2833 c-8 -21 -584 -1486 -840 -2135 l-19 -48 108 0 107 0 137
352 136 353 471 0 472 0 54 -135 c33 -85 58 -135 66 -134 45 4 175 29 182 34
12 11 -145 410 -162 410 -7 0 -56 -18 -107 -40 -52 -22 -96 -40 -98 -40 -2 0
-12 22 -22 50 l-18 50 -379 0 c-356 0 -379 1 -374 18 2 9 65 177 140 372 123
325 189 514 217 628 9 36 15 43 32 40 18 -3 28 -24 63 -133 35 -110 271 -753
281 -764 5 -5 168 67 171 76 2 4 -91 247 -205 538 l-207 530 -98 3 -97 3 -11
-28z"/>
<path d="M2277 1789 c-97 -10 -245 -49 -339 -89 -40 -17 -74 -32 -75 -34 -2
-2 6 -28 18 -57 11 -30 25 -64 30 -76 l8 -22 85 35 c149 61 226 77 371 78 165
1 217 -14 290 -88 73 -72 95 -140 102 -312 l6 -131 -199 -7 c-248 -9 -360 -21
-483 -52 -313 -79 -459 -268 -422 -547 13 -95 61 -204 113 -254 98 -94 223
-135 408 -135 216 0 316 39 460 180 52 51 101 91 109 90 11 -2 23 -38 39 -118
14 -63 30 -118 36 -122 6 -4 39 -8 74 -8 l62 0 0 615 c0 671 -3 708 -58 824
-61 131 -193 208 -397 231 -100 11 -126 11 -238 -1z m483 -967 c0 -145 -13
-219 -51 -299 -77 -159 -230 -250 -440 -260 -90 -5 -117 -2 -176 15 -137 42
-204 134 -204 283 0 98 20 162 68 218 95 111 242 154 593 170 91 4 175 9 188
9 22 2 22 1 22 -136z"/>
<path d="M2305 884 c-11 -3 -46 -9 -78 -16 -32 -6 -60 -14 -62 -18 -3 -4 12
-50 33 -101 l38 -94 112 -3 111 -3 -41 103 c-22 57 -43 111 -45 121 -5 16 -24
20 -68 11z"/>
</g>
</svg>
