<?xml version="1.0" standalone="no"?>
<!DOCTYPE svg PUBLIC "-//W3C//DTD SVG 20010904//EN"
 "http://www.w3.org/TR/2001/REC-SVG-20010904/DTD/svg10.dtd">
<svg version="1.0" xmlns="http://www.w3.org/2000/svg"
 width="442.000000pt" height="367.000000pt" viewBox="0 0 442.000000 367.000000"
 preserveAspectRatio="xMidYMid meet">
<metadata>
Created by potrace 1.15, written by Peter Selinger 2001-2017
</metadata>
<g transform="translate(0.000000,367.000000) scale(0.100000,-0.100000)"
fill="#000000" stroke="none">
<path d="M1650 3663 c-116 -42 -170 -67 -170 -76 0 -14 76 -217 84 -225 3 -3
42 12 87 32 122 56 216 78 339 79 127 0 202 -18 269 -67 81 -60 124 -144 137
-268 21 -209 -92 -422 -277 -517 l-65 -34 -64 43 c-87 59 -146 80 -228 80
-149 0 -233 -96 -205 -232 l10 -48 -36 7 c-58 11 -212 8 -271 -6 -30 -7 -87
-29 -127 -47 -79 -38 -110 -73 -161 -182 -23 -49 -27 -69 -26 -147 3 -168 58
-283 164 -342 98 -56 134 -73 149 -72 13 0 150 153 159 177 1 4 -22 16 -50 26
-72 25 -168 122 -168 169 0 127 83 197 232 197 63 0 144 -35 176 -74 54 -69
55 -176 1 -285 -58 -119 -291 -327 -591 -529 -58 -39 -82 -62 -93 -89 -14 -34
-14 -38 2 -54 48 -45 494 -408 531 -432 23 -15 71 -56 106 -90 53 -52 67 -73
81 -121 14 -48 15 -68 7 -112 -12 -55 -53 -131 -77 -140 -36 -14 -20 -36 84
-113 60 -45 113 -81 119 -81 16 0 100 132 129 202 17 42 27 90 31 144 9 153
-36 265 -157 385 -42 41 -90 82 -107 91 -17 8 -108 77 -204 152 l-172 138 48
28 c136 79 391 313 470 432 135 202 148 439 34 596 l-28 40 91 5 92 5 58 -61
c118 -124 336 -394 361 -447 28 -60 138 -220 150 -220 7 0 17 5 24 12 9 9 12
8 12 -5 0 -14 10 -17 63 -17 34 0 92 5 130 10 86 13 217 -14 278 -56 105 -72
144 -211 94 -331 -21 -49 -93 -113 -170 -149 -106 -49 -104 -49 -165 -4 -144
108 -296 137 -400 79 -53 -30 -76 -69 -89 -148 -12 -72 1 -116 46 -163 61 -64
228 -95 368 -69 l59 11 46 -52 c74 -85 187 -229 201 -257 8 -14 45 -70 83
-124 50 -71 73 -96 84 -92 9 3 62 36 119 72 l102 66 -21 31 c-35 50 -178 223
-265 320 l-80 89 88 44 c192 96 299 256 299 448 0 195 -97 343 -267 405 -39
15 -42 27 -10 39 32 12 92 81 120 138 38 75 50 145 45 249 -4 79 -10 104 -37
158 -47 95 -127 165 -233 204 -196 71 -446 68 -658 -7 -46 -16 -86 -29 -87
-27 -2 1 18 18 43 37 76 56 200 219 238 310 56 135 61 378 12 522 -14 43 -41
102 -60 130 -49 77 -142 157 -219 190 l-66 27 -318 -1 c-175 0 -325 -3 -333
-6z m1343 -1392 c61 -30 98 -84 105 -151 7 -76 -5 -113 -59 -184 -42 -54 -60
-69 -104 -85 -53 -20 -182 -42 -200 -34 -12 5 -116 148 -129 177 -5 12 -45 65
-88 119 l-78 98 47 20 c108 47 221 69 343 66 98 -2 122 -6 163 -26z"/>
</g>
</svg>
