<?xml version="1.0" standalone="no"?>
<!DOCTYPE svg PUBLIC "-//W3C//DTD SVG 20010904//EN"
 "http://www.w3.org/TR/2001/REC-SVG-20010904/DTD/svg10.dtd">
<svg version="1.0" xmlns="http://www.w3.org/2000/svg"
 width="493.000000pt" height="394.000000pt" viewBox="0 0 493.000000 394.000000"
 preserveAspectRatio="xMidYMid meet">
<metadata>
Created by potrace 1.15, written by Peter Selinger 2001-2017
</metadata>
<g transform="translate(0.000000,394.000000) scale(0.100000,-0.100000)"
fill="#000000" stroke="none">
<path d="M2789 3690 c-15 -4 -74 -44 -133 -89 -58 -45 -109 -82 -113 -82 -14
-1 -398 -300 -401 -313 -2 -11 134 -196 145 -196 8 0 216 170 243 200 14 15
59 55 100 90 41 35 83 70 92 78 15 13 16 -16 11 -440 -3 -249 -7 -454 -8 -456
-2 -2 -34 -10 -72 -18 -146 -30 -282 -85 -393 -159 -58 -38 -106 -77 -108 -86
-4 -22 136 -201 151 -192 7 4 39 27 72 51 33 24 82 55 109 69 27 14 56 31 63
39 15 15 134 54 164 54 18 0 19 -15 19 -460 l0 -461 133 3 132 3 3 454 c2 426
3 453 20 446 9 -3 31 -9 47 -12 74 -14 171 -108 205 -200 45 -121 33 -306 -29
-438 -43 -93 -137 -227 -237 -340 -49 -55 -233 -246 -409 -425 -176 -179 -355
-364 -397 -411 l-78 -86 0 -117 0 -116 780 0 780 0 0 133 0 133 -611 -4 c-373
-3 -610 -1 -608 5 2 5 121 120 264 254 566 535 738 748 821 1024 24 78 27 108
28 225 0 153 -15 225 -67 325 -34 63 -144 182 -187 202 -121 54 -190 77 -292
98 l-28 5 0 610 0 610 -92 -1 c-51 0 -105 -4 -119 -9z"/>
<path d="M1360 3251 c-116 -25 -223 -58 -296 -91 -63 -28 -177 -101 -189 -120
-7 -12 121 -190 137 -190 5 0 41 19 80 41 178 104 308 142 493 143 234 2 363
-60 428 -204 16 -35 21 -66 21 -146 1 -95 -1 -104 -33 -167 -39 -76 -103 -146
-170 -184 -25 -15 -53 -32 -62 -40 -39 -32 -171 -55 -361 -60 l-186 -6 -6 -30
c-3 -16 -6 -66 -6 -112 l0 -82 203 -7 c214 -7 318 -21 426 -57 100 -33 111
-40 173 -100 48 -48 60 -66 79 -129 28 -92 23 -222 -11 -315 -43 -116 -183
-221 -348 -262 -94 -23 -345 -23 -467 1 -111 21 -232 57 -322 95 -37 16 -71
27 -75 25 -5 -3 -8 -61 -8 -128 l0 -124 48 -20 c169 -72 343 -102 592 -102
331 0 562 75 717 231 69 69 123 162 147 254 23 85 31 236 17 325 -21 134 -104
273 -199 332 -46 28 -178 75 -266 94 -39 8 -72 16 -74 18 -2 2 36 16 85 31
117 35 136 46 220 128 84 81 123 150 153 267 40 154 12 335 -71 459 -42 63
-144 155 -183 164 -11 3 -51 17 -87 30 -112 43 -204 57 -366 56 -102 0 -174
-6 -233 -18z"/>
</g>
</svg>
