<?xml version="1.0" standalone="no"?>
<!DOCTYPE svg PUBLIC "-//W3C//DTD SVG 20010904//EN"
 "http://www.w3.org/TR/2001/REC-SVG-20010904/DTD/svg10.dtd">
<svg version="1.0" xmlns="http://www.w3.org/2000/svg"
 width="539.000000pt" height="431.000000pt" viewBox="0 0 539.000000 431.000000"
 preserveAspectRatio="xMidYMid meet">
<metadata>
Created by potrace 1.15, written by Peter Selinger 2001-2017
</metadata>
<g transform="translate(0.000000,431.000000) scale(0.100000,-0.100000)"
fill="#000000" stroke="none">
<path d="M947 4063 c-4 -3 -7 -467 -7 -1030 l0 -1024 83 3 82 3 6 60 c7 72 34
127 86 177 58 56 117 78 230 85 l98 6 22 97 c45 206 137 378 289 539 188 198
411 321 697 383 147 32 417 32 564 0 56 -12 109 -25 117 -28 14 -6 16 32 16
365 l0 371 -1138 0 c-626 0 -1142 -3 -1145 -7z"/>
<path d="M2655 3259 c-493 -67 -881 -392 -986 -824 -10 -44 -19 -83 -19 -87 0
-4 303 -8 673 -10 659 -3 673 -3 718 -24 68 -32 119 -82 151 -149 l28 -60 0
-439 0 -438 27 7 c116 29 318 157 439 279 202 203 297 427 297 701 1 217 -66
411 -202 593 -167 220 -432 381 -723 437 -102 20 -309 27 -403 14z"/>
<path d="M1297 2151 l-42 -40 -3 -933 c-2 -917 -2 -934 18 -966 11 -18 34 -41
52 -52 32 -20 49 -20 848 -18 l815 3 34 24 c64 46 61 0 61 1003 0 893 -1 914
-20 946 -11 18 -34 41 -52 52 -32 19 -52 20 -851 20 l-818 0 -42 -39z"/>
</g>
</svg>
